<?xml version="1.0" standalone="no"?>
<!DOCTYPE svg PUBLIC "-//W3C//DTD SVG 20010904//EN"
 "http://www.w3.org/TR/2001/REC-SVG-20010904/DTD/svg10.dtd">
<svg version="1.0" xmlns="http://www.w3.org/2000/svg"
 width="591.000000pt" height="591.000000pt" viewBox="0 0 591.000000 591.000000"
 preserveAspectRatio="xMidYMid meet">
<metadata>
Created by potrace 1.11, written by Peter Selinger 2001-2013
</metadata>
<g transform="translate(0.000000,591.000000) scale(0.100000,-0.100000)"
fill="#000000" stroke="none">
<path d="M2560 5654 c-151 -113 -400 -299 -553 -412 -153 -114 -288 -215 -300
-224 -12 -9 -130 -97 -262 -195 -132 -98 -245 -182 -251 -188 -6 -5 -22 -17
-34 -25 -24 -17 -109 -79 -154 -113 -16 -12 -130 -98 -255 -190 -124 -92 -237
-176 -251 -187 -14 -10 -83 -62 -155 -115 -71 -53 -132 -101 -134 -107 -2 -5
10 -40 27 -76 62 -136 92 -203 210 -467 66 -148 131 -295 145 -325 13 -30 73
-163 132 -295 59 -132 124 -278 145 -325 21 -47 65 -145 98 -218 60 -136 77
-159 229 -317 43 -46 218 -231 338 -360 26 -27 102 -108 169 -180 68 -71 134
-143 149 -158 26 -28 241 -257 307 -327 54 -57 284 -301 320 -340 32 -35 231
-247 367 -391 l73 -77 242 175 c134 97 268 194 299 217 31 22 94 68 140 102
46 33 233 168 414 299 582 421 839 607 890 644 28 20 55 39 60 44 6 4 62 45
125 91 63 45 205 148 315 227 110 80 221 160 247 179 29 20 45 37 40 45 -102
165 -211 342 -223 363 -9 15 -238 389 -509 832 -271 443 -499 816 -507 830 -8
14 -22 37 -31 52 -9 15 -49 80 -89 145 -49 82 -98 146 -158 208 -48 50 -191
197 -318 329 -128 131 -268 275 -312 321 -44 46 -183 190 -310 320 -126 130
-264 272 -306 316 -42 43 -80 79 -85 79 -5 0 -133 -93 -284 -206z"/>
</g>
</svg>
