<?xml version="1.0" encoding="utf-8"?>
<!-- Generator: Adobe Illustrator 17.0.2, SVG Export Plug-In . SVG Version: 6.00 Build 0)  -->
<!DOCTYPE svg PUBLIC "-//W3C//DTD SVG 1.1//EN" "http://www.w3.org/Graphics/SVG/1.1/DTD/svg11.dtd">
<svg version="1.1" id="Layer_1" xmlns="http://www.w3.org/2000/svg" xmlns:xlink="http://www.w3.org/1999/xlink" x="0px" y="0px"
	 width="40px" height="40px" viewBox="4 4 40 40" enable-background="new 4 4 40 40" xml:space="preserve">
<path id="path20" fill="#191717" d="M23.941,5.317c-10.571,0-19.144,8.576-19.144,19.146c0,8.457,5.519,15.621,13.037,18.205
	c0.939,0.118,1.292-0.469,1.292-0.94V38.44c-5.286,1.174-6.461-2.584-6.461-2.584c-0.822-2.232-2.114-2.821-2.114-2.821
	c-1.761-1.173,0.118-1.173,0.118-1.173c1.879,0.118,2.935,1.997,2.935,1.997c1.763,2.935,4.464,2.114,5.522,1.643
	c0.116-1.292,0.703-2.114,1.173-2.584c-4.227-0.469-8.692-2.114-8.692-9.513c0-2.114,0.705-3.758,1.997-5.168
	c-0.235-0.47-0.822-2.467,0.235-5.051c0,0,1.643-0.469,5.285,1.997c1.526-0.469,3.17-0.587,4.814-0.587
	c1.643,0,3.289,0.234,4.816,0.586c3.641-2.466,5.285-1.997,5.285-1.997c1.057,2.584,0.352,4.58,0.235,5.051
	c1.292,1.41,2.004,3.255,1.995,5.168c0,7.4-4.463,8.927-8.692,9.396c0.706,0.587,1.292,1.762,1.292,3.524v5.285
	c0,0.469,0.353,1.056,1.292,0.94c7.635-2.584,13.038-9.75,13.038-18.206C43.083,13.891,34.508,5.318,23.937,5.318L23.941,5.317z"/>
</svg>
